<svg xmlns="http://www.w3.org/2000/svg" xmlns:xlink="http://www.w3.org/1999/xlink" viewBox="0 0 283 283"><defs><style>.cls-1{fill:#899eaa;}.cls-2{fill:#fffcf4;}.cls-3{fill:url(#radial-gradient);}</style><radialGradient id="radial-gradient" cx="141.5" cy="141.5" r="74.15" gradientUnits="userSpaceOnUse"><stop offset="0.07" stop-color="#7e4a26"/><stop offset="0.33" stop-color="#956745"/><stop offset="0.6" stop-color="#6b3512"/><stop offset="0.81" stop-color="#804d29"/><stop offset="1" stop-color="#67310e"/></radialGradient></defs><g id="Layer_2" data-name="Layer 2"><g id="Layer_9" data-name="Layer 9"><circle class="cls-1" cx="141.5" cy="141.5" r="141.5"/><path class="cls-2" d="M162.8,241.73c.07,19.3-4.69,20-10.58,1.68s-15.54-18.37-21.44,0S120.13,261,120.2,241.73s-9.1-22.27-20.38-6.62-15.58,13.47-9.55-4.86-1.77-24-17.34-12.6-19,8-7.58-7.58,5.73-23.37-12.6-17.34-20.51,1.74-4.86-9.55,12.67-20.45-6.62-20.38-20.05-4.69-1.68-10.58,18.37-15.54,0-21.44S22,120.13,41.27,120.2s22.27-9.1,6.62-20.38-13.47-15.58,4.86-9.55,24-1.77,12.6-17.34-8-19,7.58-7.58,23.37,5.73,17.34-12.6-1.74-20.51,9.55-4.86,20.45,12.67,20.38-6.62,4.69-20.05,10.58-1.68,15.54,18.37,21.44,0S162.87,22,162.8,41.27s9.1,22.27,20.38,6.62,15.58-13.47,9.55,4.86,1.77,24,17.34,12.6,19-8,7.58,7.58-5.73,23.37,12.6,17.34,20.51-1.74,4.86,9.55-12.67,20.45,6.62,20.38,20,4.69,1.68,10.58-18.37,15.54,0,21.44,17.62,10.65-1.68,10.58-22.27,9.1-6.62,20.38,13.47,15.58-4.86,9.55-24,1.77-12.6,17.34,8,19-7.58,7.58-23.37-5.73-17.34,12.6,1.74,20.51-9.55,4.86S162.73,222.44,162.8,241.73Z"/><path class="cls-3" d="M155.21,206c0,12.42-3,12.91-6.81,1.08s-10-11.83-13.8,0-6.86,11.34-6.81-1.08-5.86-14.34-13.12-4.26-10,8.66-6.14-3.13-1.14-15.45-11.16-8.11-12.22,5.14-4.88-4.88,3.69-15-8.11-11.16-13.2,1.12-3.13-6.14,8.16-13.17-4.26-13.12-12.91-3-1.08-6.81,11.83-10,0-13.8-11.34-6.86,1.08-6.81,14.34-5.86,4.26-13.12-8.66-10,3.13-6.14,15.45-1.14,8.11-11.16-5.14-12.22,4.88-4.88,15,3.69,11.16-8.11-1.12-13.2,6.14-3.13,13.17,8.16,13.12-4.26,3-12.91,6.81-1.08,10,11.83,13.8,0,6.86-11.34,6.81,1.08,5.86,14.34,13.12,4.26,10-8.66,6.14,3.13,1.14,15.45,11.16,8.11,12.22-5.14,4.88,4.88-3.69,15,8.11,11.16,13.2-1.12,3.13,6.14-8.16,13.17,4.26,13.12,12.91,3,1.08,6.81-11.83,10,0,13.8,11.34,6.86-1.08,6.81-14.34,5.86-4.26,13.12,8.66,10-3.13,6.14-15.45,1.14-8.11,11.16,5.14,12.22-4.88,4.88-15-3.69-11.16,8.11,1.12,13.2-6.14,3.13S155.16,193.59,155.21,206Z"/></g></g></svg>